<?xml version="1.0" standalone="no"?>
<!DOCTYPE svg PUBLIC "-//W3C//DTD SVG 20010904//EN"
 "http://www.w3.org/TR/2001/REC-SVG-20010904/DTD/svg10.dtd">
<svg version="1.0" xmlns="http://www.w3.org/2000/svg"
 width="100.000000pt" height="100.000000pt" viewBox="0 0 100.000000 100.000000"
 preserveAspectRatio="xMidYMid meet">

<g transform="translate(0.000000,100.000000) scale(0.100000,-0.100000)"
fill="#fff" stroke="none">
<path d="M482 913 c-15 -16 -38 -28 -52 -28 -30 0 -51 -37 -48 -84 4 -50 28
-53 28 -4 0 21 4 45 9 52 8 12 12 10 22 -12 17 -37 35 -34 43 6 3 19 13 42 21
53 15 19 15 19 30 0 10 -13 15 -43 15 -90 0 -62 11 -125 36 -204 7 -23 5 -23
-64 12 -81 41 -168 108 -227 173 -33 37 -45 44 -70 41 -44 -5 -54 -50 -25
-114 12 -27 23 -67 24 -90 2 -39 37 -104 56 -104 5 0 6 -16 3 -36 -5 -33 -2
-39 45 -83 l51 -48 -28 -16 c-15 -9 -48 -38 -74 -66 -72 -77 -75 -136 -7 -136
18 0 35 -6 37 -12 5 -15 49 -17 58 -3 4 6 13 5 25 -3 28 -17 49 7 70 84 l17
64 72 7 c90 9 161 40 205 89 37 40 59 102 54 147 -3 24 1 27 30 30 37 4 40 15
12 57 -11 17 -20 37 -20 46 0 28 -44 59 -82 59 -42 0 -78 -36 -78 -77 0 -30
24 -26 28 5 8 52 77 57 101 7 8 -16 18 -38 22 -47 7 -13 3 -17 -19 -20 -25 -3
-27 -6 -24 -48 4 -59 -21 -122 -64 -159 -36 -32 -115 -60 -173 -62 -84 -3 -93
-9 -105 -69 -15 -72 -24 -87 -40 -65 -11 15 -13 14 -30 -4 -26 -29 -36 -26
-36 9 0 35 -4 36 -37 10 -32 -25 -43 -25 -43 -2 0 25 62 96 117 134 43 29 48
30 91 20 58 -13 102 1 102 32 0 47 -40 58 -109 30 -39 -16 -40 -15 -84 15 -38
26 -57 48 -57 67 0 2 14 4 30 4 38 0 38 15 1 34 -30 16 -91 80 -91 96 0 6 7
10 15 10 20 0 19 24 -2 41 -19 16 -52 86 -53 112 0 38 29 26 91 -35 35 -35 97
-86 138 -113 80 -52 185 -100 201 -90 6 4 1 23 -12 48 -33 65 -48 134 -48 223
0 67 -4 86 -21 108 -26 33 -43 33 -77 -1z m48 -543 c0 -5 -15 -10 -32 -10 -25
0 -29 3 -18 10 20 13 50 13 50 0z" />
</g>
</svg>
