<?xml version="1.0" standalone="no"?>
<!DOCTYPE svg PUBLIC "-//W3C//DTD SVG 20010904//EN"
 "http://www.w3.org/TR/2001/REC-SVG-20010904/DTD/svg10.dtd">
<svg version="1.0" xmlns="http://www.w3.org/2000/svg"
 width="512.000000pt" height="512.000000pt" viewBox="0 0 512.000000 512.000000"
 preserveAspectRatio="xMidYMid meet">

<g transform="translate(0.000000,512.000000) scale(0.100000,-0.100000)"
fill="#fff" stroke="none">
<path d="M1656 3715 c-54 -19 -106 -63 -141 -120 l-30 -48 -3 -936 c-3 -1049
-7 -983 70 -1067 76 -83 210 -112 308 -67 25 11 311 210 635 441 325 232 593
422 598 422 4 0 7 -155 7 -345 0 -386 -1 -382 70 -459 50 -54 114 -81 190 -80
99 2 184 58 226 149 l24 50 0 930 c0 610 -4 943 -10 967 -28 100 -135 178
-244 178 -110 0 -216 -73 -244 -169 -8 -26 -12 -148 -12 -375 0 -185 -4 -336
-8 -336 -5 0 -87 56 -183 125 -215 155 -495 354 -586 417 -37 27 -153 108
-257 182 -104 74 -206 139 -226 145 -50 15 -136 13 -184 -4z m179 -162 c22
-15 180 -126 350 -248 171 -122 434 -309 585 -417 151 -107 283 -204 293 -215
42 -48 40 -121 -6 -164 -53 -49 -1236 -887 -1269 -898 -43 -15 -100 2 -132 40
l-26 31 0 909 c0 624 3 917 11 930 32 60 129 76 194 32z m1581 9 c12 -9 27
-27 33 -39 17 -33 15 -1829 -2 -1863 -7 -14 -29 -33 -50 -43 -31 -16 -42 -17
-72 -7 -19 6 -44 23 -55 37 -20 25 -20 38 -20 950 l0 925 29 29 c24 23 38 29
73 29 26 0 52 -7 64 -18z"/>
</g>
</svg>
