<?xml version="1.0" standalone="no"?>
<!DOCTYPE svg PUBLIC "-//W3C//DTD SVG 20010904//EN"
 "http://www.w3.org/TR/2001/REC-SVG-20010904/DTD/svg10.dtd">
<svg version="1.0" xmlns="http://www.w3.org/2000/svg"
 width="100.000000pt" height="100.000000pt" viewBox="0 0 100.000000 100.000000"
 preserveAspectRatio="xMidYMid meet">

<g transform="translate(0.000000,100.000000) scale(0.100000,-0.100000)"
fill="#fff" stroke="none">
<path d="M180 888 l-25 -14 -3 -370 c-2 -336 -1 -373 14 -385 12 -10 48 -14
126 -14 160 0 148 -33 148 395 0 424 10 394 -137 398 -66 2 -106 -2 -123 -10z
m215 -388 l0 -345 -102 -3 -103 -3 0 351 0 351 103 -3 102 -3 0 -345z"/>
<path d="M603 890 c-12 -5 -26 -18 -32 -29 -7 -13 -11 -140 -11 -364 0 -424
-12 -392 148 -392 78 0 114 4 125 14 15 12 17 51 17 381 0 329 -2 369 -17 381
-19 17 -196 24 -230 9z m207 -390 l0 -351 -102 3 -103 3 -3 335 c-1 184 0 341
3 347 3 9 33 13 105 13 l100 0 0 -350z"/>
</g>
</svg>
