<?xml version="1.0" standalone="no"?>
<!DOCTYPE svg PUBLIC "-//W3C//DTD SVG 20010904//EN"
 "http://www.w3.org/TR/2001/REC-SVG-20010904/DTD/svg10.dtd">
<svg version="1.0" xmlns="http://www.w3.org/2000/svg"
 width="100.000000pt" height="100.000000pt" viewBox="0 0 100.000000 100.000000"
 preserveAspectRatio="xMidYMid meet">

<g transform="translate(0.000000,100.000000) scale(0.100000,-0.100000)"
fill="#fff" stroke="none">
<path d="M195 929 c-45 -26 -45 -24 -45 -427 0 -226 4 -391 10 -401 5 -10 23
-24 39 -31 26 -11 36 -10 68 7 69 36 556 353 569 371 22 29 17 86 -10 113 -34
34 -558 367 -587 373 -13 3 -33 1 -44 -5z m342 -226 c253 -161 273 -177 273
-203 0 -26 -19 -41 -237 -181 -342 -220 -342 -220 -364 -208 -18 9 -19 29 -19
389 0 348 1 380 17 389 23 12 10 19 330 -186z"/>
</g>
</svg>
