<?xml version="1.0" standalone="no"?>
<!DOCTYPE svg PUBLIC "-//W3C//DTD SVG 20010904//EN"
 "http://www.w3.org/TR/2001/REC-SVG-20010904/DTD/svg10.dtd">
<svg version="1.0" xmlns="http://www.w3.org/2000/svg"
 width="512.000000pt" height="512.000000pt" viewBox="0 0 512.000000 512.000000"
 preserveAspectRatio="xMidYMid meet">
<g transform="translate(0.000000,512.000000) scale(0.100000,-0.100000)"
fill="#fff" stroke="none">
<path d="M2058 4561 l-33 -29 -5 -1282 -5 -1281 -35 36 c-91 96 -247 180 -397
216 -74 18 -111 20 -228 17 -129 -4 -148 -7 -242 -40 -220 -76 -383 -216 -487
-417 -72 -139 -90 -219 -91 -391 0 -150 8 -198 54 -321 77 -206 274 -403 480
-480 124 -46 171 -54 321 -53 172 0 229 13 375 84 210 102 357 270 437 500
l33 95 3 1488 2 1489 118 -117 c136 -136 317 -298 382 -342 114 -77 202 -217
222 -351 13 -90 -2 -187 -44 -274 -42 -88 -48 -112 -37 -153 14 -49 60 -78
117 -72 57 6 78 27 123 122 94 199 90 432 -9 633 -49 99 -127 191 -220 259
-165 121 -423 367 -606 578 -43 50 -88 95 -99 102 -40 23 -94 16 -129 -16z
m-530 -2556 c152 -36 304 -144 391 -279 181 -278 108 -657 -164 -851 -258
-184 -590 -157 -814 66 -140 141 -211 343 -183 523 24 155 77 260 187 371 151
152 379 218 583 170z"/>
<path d="M3777 2869 c-43 -25 -61 -114 -31 -157 35 -50 48 -52 414 -52 366 0
379 2 414 52 31 44 11 134 -33 158 -26 14 -740 13 -764 -1z"/>
<path d="M2928 2014 c-36 -19 -48 -43 -48 -94 0 -52 13 -76 50 -95 25 -13 133
-15 811 -15 l781 0 34 34 c28 28 34 42 34 76 0 34 -6 48 -34 76 l-34 34 -783
0 c-672 -1 -788 -3 -811 -16z"/>
<path d="M2950 1173 c-8 -3 -27 -17 -42 -31 -23 -21 -28 -34 -28 -75 0 -40 5
-53 29 -78 l29 -29 792 0 c524 0 798 3 811 10 44 24 64 114 33 158 -37 54 -11
52 -841 51 -422 0 -775 -3 -783 -6z"/>
</g>
</svg>
