<?xml version="1.0" standalone="no"?>
<!DOCTYPE svg PUBLIC "-//W3C//DTD SVG 20010904//EN"
 "http://www.w3.org/TR/2001/REC-SVG-20010904/DTD/svg10.dtd">
<svg version="1.0" xmlns="http://www.w3.org/2000/svg"
 width="512.000000pt" height="512.000000pt" viewBox="0 0 512.000000 512.000000"
 preserveAspectRatio="xMidYMid meet">

<g transform="translate(0.000000,512.000000) scale(0.100000,-0.100000)"
fill="#fff" stroke="none">
<path d="M1649 3702 c-60 -31 -113 -93 -129 -150 -6 -24 -10 -357 -10 -967 l0
-930 24 -50 c42 -91 127 -147 226 -149 76 -1 140 26 190 80 71 77 70 73 70
459 0 190 3 345 8 345 4 0 273 -190 597 -421 325 -232 610 -431 635 -442 128
-59 293 5 356 138 l24 50 0 930 c0 879 -1 932 -19 970 -45 99 -125 155 -230
163 -120 8 -51 50 -823 -500 -284 -202 -524 -371 -532 -374 -14 -6 -16 30 -16
331 0 227 -4 350 -12 376 -41 140 -224 211 -359 141z m192 -151 l29 -29 0
-924 c0 -1027 5 -954 -67 -985 -43 -18 -93 -4 -123 34 -20 25 -20 38 -20 940
0 654 3 921 11 936 19 38 51 57 97 57 35 0 49 -6 73 -29z m1589 14 c64 -33 60
31 60 -971 l0 -912 -26 -31 c-34 -41 -91 -57 -137 -37 -48 20 -1258 882 -1281
912 -25 34 -25 98 1 132 18 26 360 276 543 399 126 84 394 274 405 288 6 6 81
62 169 123 137 96 164 112 198 112 21 0 52 -7 68 -15z"/>
</g>
</svg>
