<?xml version="1.0" standalone="no"?>
<!DOCTYPE svg PUBLIC "-//W3C//DTD SVG 20010904//EN"
 "http://www.w3.org/TR/2001/REC-SVG-20010904/DTD/svg10.dtd">
<svg version="1.0" xmlns="http://www.w3.org/2000/svg"
 width="512.000000pt" height="512.000000pt" viewBox="0 0 512.000000 512.000000"
 preserveAspectRatio="xMidYMid meet">
<g transform="translate(0.000000,512.000000) scale(0.100000,-0.100000)"
fill="#fff" stroke="none">
<path d="M1965 3785 c-18 -17 -25 -35 -25 -61 0 -33 12 -48 147 -185 l147
-149 -151 0 c-184 0 -282 -12 -390 -49 -250 -86 -442 -287 -525 -551 -20 -65
-23 -95 -23 -230 0 -135 3 -165 23 -230 102 -323 367 -549 692 -589 113 -15
1287 -15 1400 0 325 40 590 266 692 589 20 65 23 95 23 230 0 135 -3 165 -23
230 -83 264 -275 465 -525 551 -103 35 -205 49 -356 49 -105 0 -121 -2 -145
-21 -20 -16 -26 -29 -26 -58 0 -72 8 -75 192 -82 189 -7 257 -22 373 -82 106
-55 225 -172 278 -274 103 -197 103 -429 0 -626 -53 -102 -172 -219 -278 -274
-157 -81 -122 -78 -905 -78 -783 0 -748 -3 -905 78 -106 55 -225 172 -278 274
-103 197 -103 429 0 626 53 102 172 219 278 274 125 65 173 74 395 80 l195 5
-152 -154 c-139 -140 -153 -158 -153 -189 0 -46 34 -79 80 -79 31 0 55 21 262
228 126 125 231 237 234 249 3 12 3 32 -1 45 -9 27 -418 443 -457 464 -39 20
-66 17 -93 -11z"/>
</g>
</svg>
