<?xml version="1.0" standalone="no"?>
<!DOCTYPE svg PUBLIC "-//W3C//DTD SVG 20010904//EN"
 "http://www.w3.org/TR/2001/REC-SVG-20010904/DTD/svg10.dtd">
<svg version="1.0" xmlns="http://www.w3.org/2000/svg"
 width="512.000000pt" height="512.000000pt" viewBox="0 0 512.000000 512.000000"
 preserveAspectRatio="xMidYMid meet">
<g transform="translate(0.000000,512.000000) scale(0.100000,-0.100000)"
fill="#fff" stroke="none">
<path d="M3443 3798 c-27 -13 -47 -59 -38 -90 4 -13 73 -89 153 -170 l147
-148 -216 0 c-240 0 -306 -8 -395 -51 -83 -39 -142 -105 -354 -397 -96 -132
-177 -241 -180 -241 -3 0 -84 109 -180 241 -211 291 -267 354 -352 396 -97 48
-157 53 -519 50 -305 -3 -328 -4 -348 -22 -25 -23 -28 -82 -7 -112 14 -18 33
-19 373 -24 347 -5 360 -6 409 -28 28 -13 69 -42 91 -65 22 -23 238 -312 481
-642 242 -330 458 -616 479 -636 55 -52 95 -77 160 -101 52 -19 84 -22 307
-26 l249 -4 -146 -146 c-80 -81 -148 -157 -152 -170 -16 -54 42 -112 97 -99
13 4 125 109 251 235 219 220 227 229 227 267 0 38 -8 48 -228 267 -213 213
-230 228 -264 228 -45 0 -76 -25 -84 -68 -6 -32 -1 -39 152 -193 l159 -160
-240 3 c-226 3 -243 4 -291 26 -28 13 -67 40 -87 60 -19 20 -126 160 -236 310
l-200 272 200 273 c110 149 217 289 236 309 20 20 59 47 87 60 48 22 65 23
291 26 l240 3 -159 -160 c-153 -154 -158 -161 -152 -193 8 -43 39 -68 84 -68
34 0 51 15 264 228 220 220 228 229 228 267 0 38 -8 47 -233 272 -242 243
-249 248 -304 221z"/>
<path d="M2282 2313 c-11 -10 -64 -79 -117 -153 -122 -168 -165 -213 -229
-242 -49 -22 -62 -23 -409 -28 -340 -5 -359 -6 -373 -24 -21 -30 -18 -89 7
-112 20 -18 41 -19 383 -19 327 0 366 2 416 19 121 41 174 89 330 302 101 135
120 168 120 198 0 65 -79 102 -128 59z"/>
</g>
</svg>
